<?xml version="1.0" encoding="utf-8"?>
<!-- Generator: Adobe Illustrator 19.1.0, SVG Export Plug-In . SVG Version: 6.00 Build 0)  -->
<!DOCTYPE svg PUBLIC "-//W3C//DTD SVG 1.1//EN" "http://www.w3.org/Graphics/SVG/1.1/DTD/svg11.dtd">
<svg version="1.1" id="Layer_1" xmlns="http://www.w3.org/2000/svg" xmlns:xlink="http://www.w3.org/1999/xlink" x="0px" y="0px"
	 viewBox="0 0 24 24" style="enable-background:new 0 0 24 24;" xml:space="preserve">
<style type="text/css">
	.st0{fill:#A3A3A3;}
	.st1{fill:#191819;}
	.st2{fill:#666666;}
	.st3{fill:#FFFFFF;}
</style>
<g>
	<path class="st0" d="M21.8,0H4.4C3.2,0,2,1,2,2.2v16.3L5.5,22h16.3c1.2,0,2.2-1.2,2.2-2.4V2.2C24,1,23,0,21.8,0z"/>
</g>
<g>
	<path class="st1" d="M20.5,1H2.3C1,1,0,2.1,0,3.4v13L7.5,24h13c1.3,0,2.5-1.1,2.5-2.4V3.4C23,2.1,21.8,1,20.5,1z"/>
	<path class="st2" d="M7.5,18.7c0-1.3-1-2.3-2.3-2.3H0l7.5,7.5V18.7z"/>
</g>
<g>
	<path class="st3" d="M8.9,14.8H7.4v-1.9h1.7l0.3-2.2H7.8V8.8h1.8l0.4-3.3h1.7l-0.4,3.3h2.1l0.4-3.3h1.7l-0.4,3.3h1.6v1.9h-1.8
		l-0.3,2.2h1.7v1.9h-1.9l-0.5,3.7h-1.7l0.4-3.7h-2.1l-0.5,3.7H8.5L8.9,14.8z M12.9,12.9l0.3-2.2h-2.1l-0.3,2.2H12.9z"/>
</g>
</svg>
