<?xml version="1.0" encoding="utf-8"?>
<!-- Generator: Adobe Illustrator 19.1.0, SVG Export Plug-In . SVG Version: 6.00 Build 0)  -->
<!DOCTYPE svg PUBLIC "-//W3C//DTD SVG 1.1//EN" "http://www.w3.org/Graphics/SVG/1.1/DTD/svg11.dtd">
<svg version="1.1" id="Layer_1" xmlns="http://www.w3.org/2000/svg" xmlns:xlink="http://www.w3.org/1999/xlink" x="0px" y="0px"
	 viewBox="0 0 128 128" style="enable-background:new 0 0 128 128;" xml:space="preserve">
<style type="text/css">
	.st0{fill:#A3A3A3;}
	.st1{fill:#191819;}
	.st2{fill:#666666;}
	.st3{fill:#FFFFFF;}
</style>
<g>
	<path class="st0" d="M122.5,14.8H11.9c-3.1,0-5.6,2.4-5.6,5.5V84l19.5,19.5h96.7c3.1,0,5.5-2.6,5.5-5.6V20.3
		C128,17.2,125.6,14.8,122.5,14.8z"/>
	<path class="st1" d="M116.3,21.7H5.7c-3.1,0-5.7,2.6-5.7,5.7v58.2l25.1,24.8h91.2c3.1,0,5.7-2.4,5.7-5.5V27.3
		C122,24.3,119.4,21.7,116.3,21.7z"/>
	<path class="st2" d="M19.4,85.4c3.1,0,5.6,2.6,5.6,5.7v19.3l-24.9-25H19.4z"/>
	<path class="st2" d="M15.5,43.4l0.4-3.4H19l-0.4,3.4H15.5z M11.8,52h2.6l0.7-5.7h3.2L17.6,52h2.6l0.7-5.7h2.9v-2.9h-2.6l0.4-3.4
		h2.8v-2.9H22l0.6-5.1h-2.6l-0.6,5.1h-3.2l0.6-5.1h-2.6l-0.6,5.1h-2.8V40h2.4l-0.4,3.4h-2.6v2.9h2.3L11.8,52z"/>
	<path class="st3" d="M111.6,49.8l-3.3-5.9c1.6-0.7,2.6-2.1,2.6-4.3c0-3.5-2.6-4.6-5.7-4.6h-5.3v14.8h3.4v-5.3h1.8l2.8,5.3H111.6z
		 M103.3,37.7h1.7c1.7,0,2.7,0.5,2.7,1.9s-1,2.2-2.7,2.2h-1.7V37.7z M87.5,49.8H97V47h-6.1v-3.4h5v-2.8h-5v-3h5.9v-2.8h-9.3V49.8z
		 M73.6,49.8H77v-4l1.7-2.3l3.6,6.2H86L80.7,41l4.5-5.9h-3.6L77,41.1H77v-6.1h-3.4V49.8z M59.8,42.5c0,5,3.1,7.6,7,7.6
		c1.8,0,3.5-0.7,4.7-2.2l-1.8-2c-0.7,0.8-1.6,1.3-2.8,1.3c-2.2,0-3.6-1.8-3.6-4.8c0-3,1.6-4.8,3.7-4.8c1,0,1.7,0.4,2.5,1.1l1.8-2.1
		c-1-1-2.5-1.9-4.4-1.9C63,34.8,59.8,37.7,59.8,42.5z M55.6,49.8h3.5l-4.6-14.8h-4l-4.6,14.8h3.4l0.9-3.5h4.5L55.6,49.8z M50.9,43.7
		l0.4-1.4c0.4-1.5,0.8-3.2,1.2-4.8h0.1c0.4,1.5,0.8,3.3,1.2,4.8l0.4,1.4H50.9z M32.5,49.8h3.4v-6.2H41v6.2h3.3V35.1H41v5.7h-5.1
		v-5.7h-3.4V49.8z"/>
	<path class="st3" d="M81.2,93.9c1.5,1.4,3.6,2.1,5.5,2.1c3.5,0,5.6-2.1,5.6-4.6c0-2.1-1.1-3.3-2.9-4l-1.9-0.8
		c-1.3-0.5-2.3-0.8-2.3-1.7c0-0.8,0.7-1.3,1.9-1.3c1.2,0,2.1,0.4,3.1,1.2l1.7-2.1c-1.3-1.3-3.1-1.9-4.8-1.9c-3.1,0-5.3,1.9-5.3,4.4
		c0,2.2,1.5,3.4,3,4l1.9,0.8c1.3,0.5,2.1,0.8,2.1,1.8c0,0.9-0.7,1.4-2.1,1.4c-1.2,0-2.6-0.6-3.6-1.5L81.2,93.9z M64.9,95.7h3.1v-5.4
		c0-1.5-0.3-3.6-0.4-5h0.1l1.2,3.4l2.3,5.7h1.3l2.3-5.7l1.2-3.4H76c-0.2,1.4-0.4,3.6-0.4,5v5.4h3.1V80.9h-3.5l-2.4,6.6l-0.9,2.6
		h-0.1l-0.9-2.6l-2.5-6.6h-3.5V95.7z M51,88.4c0,5,3.1,7.6,7,7.6c1.8,0,3.5-0.7,4.7-2.2l-1.8-2c-0.7,0.8-1.6,1.3-2.8,1.3
		c-2.2,0-3.6-1.8-3.6-4.8c0-3,1.6-4.8,3.7-4.8c1,0,1.7,0.4,2.5,1.1l1.8-2.1c-1-1-2.5-1.9-4.4-1.9C54.2,80.7,51,83.5,51,88.4z"/>
	<path class="st2" d="M104.6,68.9h8.1v-0.7h-8.1V68.9z M104.6,64.9h8.1v-0.7h-8.1V64.9z M95.2,68.9h8.1v-0.7h-8.1V68.9z M95.2,64.9
		h8.1v-0.7h-8.1V64.9z M85.7,68.9h8.1v-0.7h-8.1V68.9z M85.7,64.9h8.1v-0.7h-8.1V64.9z M76.3,68.9h8.1v-0.7h-8.1V68.9z M76.3,64.9
		h8.1v-0.7h-8.1V64.9z M66.8,68.9h8.1v-0.7h-8.1V68.9z M66.8,64.9h8.1v-0.7h-8.1V64.9z M57.4,68.9h8.1v-0.7h-8.1V68.9z M57.4,64.9
		h8.1v-0.7h-8.1V64.9z M47.9,68.9H56v-0.7h-8.1V68.9z M47.9,64.9H56v-0.7h-8.1V64.9z M38.5,68.9h8.1v-0.7h-8.1V68.9z M38.5,64.9h8.1
		v-0.7h-8.1V64.9z M29,68.9h8.1v-0.7H29V68.9z M29,64.9h8.1v-0.7H29V64.9z M19.6,68.9h8.1v-0.7h-8.1V68.9z M19.6,64.9h8.1v-0.7h-8.1
		V64.9z M10.1,68.9h8.1v-0.7h-8.1V68.9z M10.1,64.9h8.1v-0.7h-8.1V64.9z"/>
</g>
</svg>
