<?xml version="1.0" encoding="utf-8"?>
<!-- Generator: Adobe Illustrator 19.1.0, SVG Export Plug-In . SVG Version: 6.00 Build 0)  -->
<!DOCTYPE svg PUBLIC "-//W3C//DTD SVG 1.1//EN" "http://www.w3.org/Graphics/SVG/1.1/DTD/svg11.dtd">
<svg version="1.1" id="Layer_1" xmlns="http://www.w3.org/2000/svg" xmlns:xlink="http://www.w3.org/1999/xlink" x="0px" y="0px"
	 viewBox="0 0 150 150" style="enable-background:new 0 0 150 150;" xml:space="preserve">
<style type="text/css">
	.st0{fill:#A3A3A3;}
	.st1{fill:#191819;}
	.st2{fill:#666666;}
	.st3{fill:#FFFFFF;}
</style>
<g>
	<path class="st0" d="M143.5,19H13.9c-3.6,0-6.5,2.9-6.5,6.5V100l22.8,22.9h113.3c3.6,0,6.5-3,6.5-6.6V25.4
		C150,21.8,147.1,19,143.5,19z"/>
	<path class="st1" d="M136.3,27H6.7c-3.6,0-6.7,3-6.7,6.6v68.2L29.4,131h106.9c3.6,0,6.7-2.8,6.7-6.4V33.7
		C142.9,30.1,139.9,27,136.3,27z"/>
	<path class="st2" d="M22.7,101.7c3.6,0,6.5,3.1,6.5,6.7V131L0.1,101.7H22.7z"/>
	<path class="st2" d="M18.1,52.5l0.5-4h3.7l-0.5,4H18.1z M13.8,62.6h3.1l0.8-6.7h3.7l-0.8,6.7h3.1l0.8-6.7h3.4v-3.4h-3l0.5-4h3.3
		v-3.4h-2.8l0.7-5.9h-3l-0.8,5.9H19l0.7-5.9h-3L16,45.1h-3.3v3.4h2.8l-0.5,4H12v3.4h2.7L13.8,62.6z"/>
	<path class="st3" d="M130.8,60l-3.9-6.9c1.8-0.8,3.1-2.4,3.1-5c0-4.1-3-5.4-6.7-5.4h-6.2V60h3.9v-6.2h2.1l3.3,6.2H130.8z M121,45.8
		h2c2,0,3.2,0.6,3.2,2.3s-1.1,2.6-3.2,2.6h-2V45.8z M102.6,60h11.1v-3.3h-7.2v-4h5.9v-3.3h-5.9V46h6.9v-3.3h-10.9V60z M86.3,60h3.9
		v-4.6l2-2.7l4.2,7.3h4.3l-6.2-10.4l5.2-6.9h-4.3l-5.2,7.1h-0.1v-7.1h-3.9V60z M70,51.5c0,5.8,3.7,8.9,8.2,8.9
		c2.2,0,4.1-0.9,5.5-2.6l-2.2-2.4c-0.9,0.9-1.9,1.5-3.3,1.5c-2.5,0-4.2-2.1-4.2-5.6c0-3.5,1.9-5.6,4.3-5.6c1.2,0,2,0.5,2.9,1.3
		l2.2-2.4c-1.2-1.2-3-2.3-5.1-2.3C73.8,42.4,70,45.8,70,51.5z M65.2,60h4.1l-5.4-17.3h-4.7L53.8,60h4l1.1-4.1h5.3L65.2,60z
		 M59.6,52.9l0.4-1.6c0.5-1.7,1-3.7,1.4-5.6h0.1c0.5,1.8,0.9,3.9,1.4,5.6l0.4,1.6H59.6z M38.1,60H42v-7.2h6V60h3.9V42.7H48v6.7h-6
		v-6.7h-3.9V60z"/>
	<path class="st3" d="M95.1,111.6c1.8,1.6,4.2,2.5,6.4,2.5c4.1,0,6.5-2.5,6.5-5.4c0-2.4-1.3-3.9-3.4-4.7l-2.2-0.9
		c-1.5-0.6-2.7-1-2.7-2c0-1,0.9-1.6,2.2-1.6c1.4,0,2.5,0.5,3.6,1.4l2-2.5c-1.5-1.5-3.6-2.3-5.6-2.3c-3.6,0-6.2,2.3-6.2,5.2
		c0,2.5,1.7,4,3.5,4.7l2.2,1c1.5,0.6,2.5,1,2.5,2.1c0,1-0.8,1.7-2.4,1.7c-1.4,0-3-0.7-4.3-1.8L95.1,111.6z M76,113.8h3.6v-6.3
		c0-1.7-0.3-4.2-0.5-5.9h0.1l1.4,4l2.7,6.7h1.6l2.7-6.7l1.4-4H89c-0.2,1.7-0.5,4.2-0.5,5.9v6.3h3.7V96.5H88l-2.8,7.8l-1,3h-0.1l-1-3
		l-2.9-7.8H76V113.8z M59.8,105.2c0,5.8,3.7,8.9,8.2,8.9c2.2,0,4.1-0.9,5.5-2.6l-2.2-2.4c-0.9,0.9-1.9,1.5-3.3,1.5
		c-2.5,0-4.2-2.1-4.2-5.6c0-3.5,1.9-5.6,4.3-5.6c1.2,0,2,0.5,2.9,1.3l2.2-2.4c-1.2-1.2-3-2.3-5.1-2.3
		C63.6,96.1,59.8,99.5,59.8,105.2z"/>
	<path class="st2" d="M122.6,82.4h9.5v-0.9h-9.5V82.4z M122.6,77.7h9.5v-0.9h-9.5V77.7z M111.5,82.4h9.5v-0.9h-9.5V82.4z
		 M111.5,77.7h9.5v-0.9h-9.5V77.7z M100.4,82.4h9.5v-0.9h-9.5V82.4z M100.4,77.7h9.5v-0.9h-9.5V77.7z M89.4,82.4h9.5v-0.9h-9.5V82.4
		z M89.4,77.7h9.5v-0.9h-9.5V77.7z M78.3,82.4h9.5v-0.9h-9.5V82.4z M78.3,77.7h9.5v-0.9h-9.5V77.7z M67.2,82.4h9.5v-0.9h-9.5V82.4z
		 M67.2,77.7h9.5v-0.9h-9.5V77.7z M56.1,82.4h9.5v-0.9h-9.5V82.4z M56.1,77.7h9.5v-0.9h-9.5V77.7z M45.1,82.4h9.5v-0.9h-9.5V82.4z
		 M45.1,77.7h9.5v-0.9h-9.5V77.7z M34,82.4h9.5v-0.9H34V82.4z M34,77.7h9.5v-0.9H34V77.7z M22.9,82.4h9.5v-0.9h-9.5V82.4z
		 M22.9,77.7h9.5v-0.9h-9.5V77.7z M11.8,82.4h9.5v-0.9h-9.5V82.4z M11.8,77.7h9.5v-0.9h-9.5V77.7z"/>
</g>
</svg>
